<?xml version="1.0" encoding="UTF-8"?>
<svg id="Camada_1" data-name="Camada 1" xmlns="http://www.w3.org/2000/svg" xmlns:xlink="http://www.w3.org/1999/xlink" viewBox="0 0 287.75 268.93">
  <defs>
    <style>
      .cls-1 {
        stroke: url(#Gradiente_sem_nome_26);
      }

      .cls-1, .cls-2 {
        fill: none;
        stroke-miterlimit: 10;
        stroke-width: 24px;
      }

      .cls-2 {
        stroke: url(#Gradiente_sem_nome_18);
      }

      .cls-3 {
        fill: #3168e6;
      }

      .cls-3, .cls-4 {
        stroke-width: 0px;
      }

      .cls-4 {
        fill: #1653b2;
      }
    </style>
    <linearGradient id="Gradiente_sem_nome_26" data-name="Gradiente sem nome 26" x1="0" y1="134.46" x2="284.33" y2="134.46" gradientUnits="userSpaceOnUse">
      <stop offset="0" stop-color="#004185"/>
      <stop offset="0" stop-color="#004186"/>
      <stop offset=".23" stop-color="#1652b1"/>
      <stop offset=".44" stop-color="#265fd2"/>
      <stop offset=".65" stop-color="#3269e9"/>
      <stop offset=".84" stop-color="#396ff8"/>
      <stop offset="1" stop-color="#3c71fd"/>
    </linearGradient>
    <linearGradient id="Gradiente_sem_nome_18" data-name="Gradiente sem nome 18" x1=".02" y1="133.52" x2="287.75" y2="133.52" gradientUnits="userSpaceOnUse">
      <stop offset="0" stop-color="#3c71fd"/>
      <stop offset=".48" stop-color="#1f5ac4"/>
      <stop offset="1" stop-color="#004185"/>
    </linearGradient>
  </defs>
  <g id="LOGO">
    <path class="cls-1" d="m177.2,40.97c6.89-9.68,18.92-26.59,18.92-26.59.96-1.34,3.09-2.41,4.74-2.37l69.77,1.67c1.65.04,2.19,1.15,1.2,2.47L92.56,254.53c-.99,1.32-3.15,2.4-4.8,2.4H13.71c-1.65,0-2.2-1.09-1.22-2.42,0,0,57.74-78.64,87.5-119.17"/>
    <path class="cls-2" d="m92.94,14.3c-1.01-1.3-3.19-2.31-4.84-2.25,0,0-37.03,1.54-57.83,1.69-6.58.05-16.57.01-16.57.01-1.65,0-2.18,1.06-1.18,2.38l180.08,236.6c1,1.31,3.17,2.33,4.81,2.26l76.66-3.37c1.65-.07,2.17-1.2,1.16-2.5L92.94,14.3Z"/>
    <ellipse class="cls-4" cx="161.96" cy="57.4" rx="9.83" ry="10.36"/>
    <path class="cls-3" d="m168.12,34.22c-2.31,4.46-1.88,9.67,1.02,12.93,3.88,4.38,11.84,4.9,17.32,0l-18.35-12.93Z"/>
  </g>
</svg>